<svg xmlns="http://www.w3.org/2000/svg" width="22" height="21" fill="none">
  <symbol id="chat">
    <path fill="#8A898E" fill-rule="evenodd" d="M.663 16.762h5.122v-2.095H4.123l1.74-1.738-.66-.739c-.99-1.108-1.514-2.426-1.514-3.809 0-3.467 3.29-6.286 7.334-6.286 3.658 0 6.783 2.34 7.268 5.445l2.07-.323C19.718 3.102 15.704 0 11.023 0 5.825 0 1.594 3.76 1.594 8.38c0 1.588.49 3.1 1.426 4.428L.195 15.632a.662.662 0 0 0 .468 1.13Z" clip-rule="evenodd"/>
    <path fill="#8A898E" d="M21.381 21c.494 0 .788-.562.514-.982l-1.713-2.629A5.71 5.71 0 0 0 20.709 15c0-3.309-2.85-6-6.354-6S8 11.691 8 15s2.85 6 6.354 6h7.027Z"/>
  </symbol>
</svg>