<svg xmlns="http://www.w3.org/2000/svg" width="32" height="38" fill="none">
  <symbol id="event__logo">
    <path fill="#707397" d="M17.111 25.781c0-3.341 2.349-7.404 5.242-9.069l8.152-4.69c.826-.475 1.495-.087 1.495.867v9.484c0 3.369-2.386 7.465-5.303 9.103l-8.11 4.556c-.819.46-1.476.07-1.476-.875v-9.376Z"/>
    <path fill="#8DD6F7" d="M.497 12.916c0-.965.688-1.358 1.53-.874l8.157 4.694c2.884 1.66 5.202 5.65 5.202 8.955v9.44c0 .955-.676 1.35-1.509.883l-8.115-4.558C2.853 29.823.497 25.8.497 22.466v-9.55Z"/>
    <g filter="url(#a)">
      <path fill="#ED5D2E" d="M7.862 13.178c-2.885-1.66-2.885-5.822 0-7.482l7.526-4.33a1.726 1.726 0 0 1 1.722 0l7.526 4.33c2.884 1.66 2.884 5.822 0 7.482l-7.524 4.329a1.73 1.73 0 0 1-1.726 0l-7.524-4.33Z"/>
    </g>
    <defs>
      <filter id="a" width="23.073" height="18.574" x="4.712" y=".15" color-interpolation-filters="sRGB" filterUnits="userSpaceOnUse">
      <feFlood flood-opacity="0" result="BackgroundImageFix"/>
      <feGaussianBlur in="BackgroundImageFix" stdDeviation=".493"/>
      <feComposite in2="SourceAlpha" operator="in" result="effect1_backgroundBlur_2031_1111"/>
      <feBlend in="SourceGraphic" in2="effect1_backgroundBlur_2031_1111" result="shape"/>
      </filter>
    </defs>
  </symbol>
</svg>