<svg xmlns="http://www.w3.org/2000/svg" width="104" height="100" fill="none">
  <symbol id='no_questions'>
    <path fill="#E5E5E6" fill-rule="evenodd" d="M3.244 76h23.223v-9.5h-7.534l7.885-7.88-2.992-3.349C19.34 50.245 16.966 44.27 16.966 38c0-15.718 14.915-28.5 33.25-28.5 16.587 0 30.757 10.611 32.956 24.686l9.386-1.463C89.641 14.065 71.439 0 50.216 0 26.648 0 7.467 17.048 7.467 38c0 7.196 2.223 14.055 6.465 20.074L1.123 70.877C-.767 72.768.57 76 3.244 76Zm97.74 23.75c2.396 0 3.825-2.67 2.496-4.664l-8.324-12.488a26.615 26.615 0 0 0 2.56-11.348c0-15.718-13.85-28.5-30.875-28.5-17.024 0-30.875 12.782-30.875 28.5s13.851 28.5 30.875 28.5h34.143Zm-55.518-28.5c0-10.474 9.59-19 21.375-19 11.79 0 21.375 8.526 21.375 19 0 3.22-.883 6.284-2.631 9.106l-1.606 2.593 4.864 7.301H66.841c-11.784 0-21.375-8.522-21.375-19Z" clip-rule="evenodd"/>
  </symbol>
</svg>