<svg xmlns="http://www.w3.org/2000/svg" width="20" height="20" fill="none">
<symbol id='smile'>
<path fill="#8A898E" fill-rule="evenodd" d="M4.343 4.343a8 8 0 1 1 11.314 11.314A8 8 0 0 1 4.343 4.343ZM10 0C4.477 0 0 4.477 0 10s4.477 10 10 10 10-4.477 10-10S15.523 0 10 0ZM8.56 8.56a1.5 1.5 0 1 0-2.12-2.12 1.5 1.5 0 0 0 2.12 2.12Zm5 0a1.5 1.5 0 1 0-2.12-2.12 1.5 1.5 0 0 0 2.12 2.12Zm-7.777 2.463a1.001 1.001 0 0 0-.602 1.551c.677.967 1.973 2.17 3.703 2.53 1.824.379 3.875-.23 5.859-2.435a1.001 1.001 0 1 0-1.486-1.338c-1.616 1.795-2.982 2.019-3.966 1.815-1.079-.224-1.982-1.021-2.472-1.719a1 1 0 0 0-1.036-.404Z" clip-rule="evenodd"/>
</symbol>
</svg>