<svg xmlns="http://www.w3.org/2000/svg" width="20" height="22" fill="#8A898E">
  <symbol id="union1">
    <path fill-rule="evenodd" d="M17 1v1c1.953 0 3.03.926 3 2.943v13.558A3.492 3.492 0 0 1 16.501 22H3.5A3.492 3.492 0 0 1 0 18.501V4.943C0 3.035 1 2 3 2V1a1 1 0 1 1 2 0v1h10V1a1 1 0 0 1 2 0Zm-.33 19c.752 0 1.33-.607 1.33-1.33V6.078H2V18.67c0 .723.607 1.33 1.33 1.33h13.34ZM10.456 8.016a.5.5 0 0 0-.912 0l-1.23 2.74a.5.5 0 0 1-.402.293l-2.986.323a.5.5 0 0 0-.282.867l2.226 2.017a.5.5 0 0 1 .153.473l-.615 2.94a.5.5 0 0 0 .738.535l2.605-1.493a.5.5 0 0 1 .498 0l2.605 1.494a.5.5 0 0 0 .738-.537l-.615-2.94a.5.5 0 0 1 .153-.472l2.226-2.017a.5.5 0 0 0-.282-.867l-2.986-.323a.5.5 0 0 1-.402-.293l-1.23-2.74Z" clip-rule="evenodd"/>
  </symbol>
</svg>