<svg xmlns="http://www.w3.org/2000/svg" width="23" height="20" fill="#8A898E">
  <symbol id="union2">
    <path fill-rule="evenodd" d="M11 8a4 4 0 1 0 0-8 4 4 0 0 0 0 8ZM5.5 1a3.5 3.5 0 1 0 0 7 1 1 0 0 0 0-2 1.5 1.5 0 1 1 0-3 1 1 0 0 0 0-2ZM4 16a7 7 0 1 1 13.903 1.167C17.603 18.958 13 19.5 11 19.5s-6.581-.425-6.902-2.33A7.041 7.041 0 0 1 4 16Zm-.146-5.227a1 1 0 0 0-1.26-1.554 6.988 6.988 0 0 0-2.496 6.61 1 1 0 0 0 1.972-.332 4.988 4.988 0 0 1 1.784-4.725ZM20.5 4.5A3.5 3.5 0 0 0 17 1a1 1 0 1 0 0 2 1.5 1.5 0 0 1 0 3 1 1 0 1 0 0 2 3.5 3.5 0 0 0 3.5-3.5Zm-2.13 6.273a1 1 0 0 1 1.26-1.554 6.989 6.989 0 0 1 2.497 6.61 1 1 0 1 1-1.972-.332 4.988 4.988 0 0 0-1.784-4.725Z" clip-rule="evenodd"/>
  </symbol>
</svg>